<?xml version="1.0" encoding="UTF-8" standalone="no"?>
<!DOCTYPE svg PUBLIC "-//W3C//DTD SVG 1.1//EN" "http://www.w3.org/Graphics/SVG/1.1/DTD/svg11.dtd">
<svg width="100%" height="100%" viewBox="0 0 2481 2481" version="1.1" xmlns="http://www.w3.org/2000/svg" xmlns:xlink="http://www.w3.org/1999/xlink" xml:space="preserve" xmlns:serif="http://www.serif.com/" style="fill-rule:evenodd;clip-rule:evenodd;stroke-linejoin:round;stroke-miterlimit:2;">
    <g transform="matrix(0.780114,-0.780114,0.780114,0.780114,-871.145,1054.39)">
        <g transform="matrix(1,0,0,1,84.4527,28.6828)">
            <path d="M1276.66,1580.95C1276.66,1547.58 1249.56,1520.48 1216.18,1520.48L1095.23,1520.48C1061.85,1520.48 1034.75,1547.58 1034.75,1580.95L1034.75,2826.14C1034.75,2859.52 1061.85,2886.62 1095.23,2886.62L1216.18,2886.62C1249.56,2886.62 1276.66,2859.52 1276.66,2826.14L1276.66,1580.95Z" style="fill:currentColor;"/>
        </g>
        <g>
            <g transform="matrix(0.738225,0.738225,-0.738225,0.738225,1235.73,-386.05)">
                <g>
                    <path d="M1100.13,531.395C1049.49,480.761 967.274,480.761 916.64,531.395L541.395,906.64C490.761,957.274 490.761,1039.49 541.395,1090.13L916.64,1465.37C967.274,1516.01 1049.49,1516.01 1100.13,1465.37L1475.37,1090.13C1526.01,1039.49 1526.01,957.274 1475.37,906.64L1100.13,531.395ZM965.804,1187.62C989.686,1163.73 1028.46,1163.73 1052.35,1187.62C1076.23,1211.5 1076.23,1250.28 1052.35,1274.16C1028.46,1298.04 989.686,1298.04 965.804,1274.16C941.921,1250.28 941.921,1211.5 965.804,1187.62ZM1185.95,967.468C1209.83,943.585 1248.61,943.585 1272.5,967.468C1296.38,991.35 1296.38,1030.13 1272.5,1054.01C1248.61,1077.89 1209.83,1077.89 1185.95,1054.01C1162.07,1030.13 1162.07,991.35 1185.95,967.468ZM965.111,955.111C988.994,931.229 1027.77,931.229 1051.65,955.111C1075.54,978.994 1075.54,1017.77 1051.65,1041.65C1027.77,1065.54 988.994,1065.54 965.111,1041.65C941.229,1017.77 941.229,978.994 965.111,955.111ZM732.607,954.419C756.49,930.537 795.269,930.537 819.151,954.419C843.033,978.302 843.033,1017.08 819.151,1040.96C795.269,1064.85 756.49,1064.85 732.607,1040.96C708.725,1017.08 708.725,978.302 732.607,954.419ZM952.755,734.271C976.638,710.389 1015.42,710.389 1039.3,734.271C1063.18,758.154 1063.18,796.932 1039.3,820.815C1015.42,844.697 976.638,844.697 952.755,820.815C928.873,796.932 928.873,758.154 952.755,734.271Z" style="fill:currentColor;"/>
                </g>
            </g>
            <g transform="matrix(1,0,0,1,106.047,8.13898)">
                <path d="M680.019,666.392C680.019,631.307 651.534,602.822 616.448,602.822L489.308,602.822C454.223,602.822 425.738,631.307 425.738,666.392L425.738,1514.02C425.738,1549.11 454.223,1577.59 489.308,1577.59L616.448,1577.59C651.534,1577.59 680.019,1549.11 680.019,1514.02L680.019,666.392Z" style="fill:currentColor;"/>
            </g>
            <g transform="matrix(1,0,0,1,1268.51,8.13898)">
                <path d="M680.019,666.392C680.019,631.307 651.534,602.822 616.448,602.822L489.308,602.822C454.223,602.822 425.738,631.307 425.738,666.392L425.738,1514.02C425.738,1549.11 454.223,1577.59 489.308,1577.59L616.448,1577.59C651.534,1577.59 680.019,1549.11 680.019,1514.02L680.019,666.392Z" style="fill:currentColor;"/>
            </g>
        </g>
    </g>
</svg>
