<?xml version="1.0" encoding="UTF-8" standalone="no"?>
<!DOCTYPE svg PUBLIC "-//W3C//DTD SVG 1.1//EN" "http://www.w3.org/Graphics/SVG/1.1/DTD/svg11.dtd">
<svg width="100%" height="100%" viewBox="0 0 2481 2481" version="1.1" xmlns="http://www.w3.org/2000/svg" xmlns:xlink="http://www.w3.org/1999/xlink" xml:space="preserve" xmlns:serif="http://www.serif.com/" style="fill-rule:evenodd;clip-rule:evenodd;stroke-linejoin:round;stroke-miterlimit:2;">
    <g transform="matrix(0.780114,-0.780114,0.780114,0.780114,-871.572,1054.33)">
        <g transform="matrix(1,0,0,1,84.4527,28.6828)">
            <path d="M1276.66,1580.95C1276.66,1547.58 1249.56,1520.48 1216.18,1520.48L1095.23,1520.48C1061.85,1520.48 1034.75,1547.58 1034.75,1580.95L1034.75,2826.14C1034.75,2859.52 1061.85,2886.62 1095.23,2886.62L1216.18,2886.62C1249.56,2886.62 1276.66,2859.52 1276.66,2826.14L1276.66,1580.95Z" style="fill:currentColor;"/>
        </g>
        <g>
            <g transform="matrix(2.3871e-17,0.906415,-0.906415,-4.38489e-17,2474.21,388.776)">
                <g>
                    <path d="M473.959,903.157L1085.19,903.157C1167.67,903.157 1234.63,970.119 1234.63,1052.6L1234.63,1663.83C1234.63,1746.31 1167.67,1813.27 1085.19,1813.27L473.959,1813.27C391.481,1813.27 324.519,1746.31 324.519,1663.83L324.519,1052.6C324.519,970.119 391.481,903.157 473.959,903.157ZM519.164,1547.01C519.164,1585.91 550.748,1617.5 589.649,1617.5C628.551,1617.5 660.134,1585.91 660.134,1547.01C660.134,1508.11 628.551,1476.53 589.649,1476.53C550.748,1476.53 519.164,1508.11 519.164,1547.01ZM590.565,1297.44C551.453,1297.44 519.699,1329.19 519.699,1368.31C519.699,1407.42 551.453,1439.17 590.565,1439.17C629.677,1439.17 661.431,1407.42 661.431,1368.31C661.431,1329.19 629.677,1297.44 590.565,1297.44ZM519.164,1188.41C519.164,1227.32 550.748,1258.9 589.649,1258.9C628.551,1258.9 660.134,1227.32 660.134,1188.41C660.134,1149.51 628.551,1117.93 589.649,1117.93C550.748,1117.93 519.164,1149.51 519.164,1188.41ZM899.015,1188.41C899.015,1227.32 930.599,1258.9 969.501,1258.9C1008.4,1258.9 1039.99,1227.32 1039.99,1188.41C1039.99,1149.51 1008.4,1117.93 969.501,1117.93C930.599,1117.93 899.015,1149.51 899.015,1188.41ZM969.457,1297.44C930.345,1297.44 898.591,1329.19 898.591,1368.31C898.591,1407.42 930.345,1439.17 969.457,1439.17C1008.57,1439.17 1040.32,1407.42 1040.32,1368.31C1040.32,1329.19 1008.57,1297.44 969.457,1297.44ZM899.015,1547.01C899.015,1585.91 930.599,1617.5 969.501,1617.5C1008.4,1617.5 1039.99,1585.91 1039.99,1547.01C1039.99,1508.11 1008.4,1476.53 969.501,1476.53C930.599,1476.53 899.015,1508.11 899.015,1547.01Z" style="fill:currentColor;"/>
                </g>
            </g>
            <g transform="matrix(1,0,0,1,106.047,8.13898)">
                <path d="M680.019,666.392C680.019,631.307 651.534,602.822 616.448,602.822L489.308,602.822C454.223,602.822 425.738,631.307 425.738,666.392L425.738,1514.02C425.738,1549.11 454.223,1577.59 489.308,1577.59L616.448,1577.59C651.534,1577.59 680.019,1549.11 680.019,1514.02L680.019,666.392Z" style="fill:currentColor;"/>
            </g>
            <g transform="matrix(1,0,0,1,1268.51,8.13898)">
                <path d="M680.019,666.392C680.019,631.307 651.534,602.822 616.448,602.822L489.308,602.822C454.223,602.822 425.738,631.307 425.738,666.392L425.738,1514.02C425.738,1549.11 454.223,1577.59 489.308,1577.59L616.448,1577.59C651.534,1577.59 680.019,1549.11 680.019,1514.02L680.019,666.392Z" style="fill:currentColor;"/>
            </g>
        </g>
    </g>
</svg>
